<?xml version="1.0" encoding="utf-8"?>
<!-- Generator: Adobe Illustrator 22.1.0, SVG Export Plug-In . SVG Version: 6.00 Build 0)  -->
<svg version="1.1" id="레이어_1" xmlns="http://www.w3.org/2000/svg" xmlns:xlink="http://www.w3.org/1999/xlink" x="0px"
	 y="0px" viewBox="0 0 710 711" style="enable-background:new 0 0 710 711;" xml:space="preserve">
<style type="text/css">
	.st0{fill:#3B3838;}
	.st1{clip-path:url(#SVGID_2_);}
	.st2{clip-path:url(#SVGID_4_);fill:#F2F2F2;}
	.st3{clip-path:url(#SVGID_6_);}
	.st4{clip-path:url(#SVGID_8_);}
	.st5{clip-path:url(#SVGID_12_);}
	.st6{clip-path:url(#SVGID_13_);}
	.st7{clip-path:url(#SVGID_14_);fill:#F2F2F2;}
</style>
<g>
	<path class="st0" d="M-0.1,36c0-20,16.2-36.1,36.2-36.1h638.1c20,0,36.2,16.2,36.2,36.1v638.9c0,20-16.2,36.1-36.2,36.1H36.1
		c-20,0-36.2-16.2-36.2-36.1V36z"/>
	<g>
		<g>
			<defs>
				<rect id="SVGID_1_" x="-0.1" y="-0.2" width="710.5" height="711.2"/>
			</defs>
			<clipPath id="SVGID_2_">
				<use xlink:href="#SVGID_1_"  style="overflow:visible;"/>
			</clipPath>
			<g class="st1">
				<g>
					<defs>
						<rect id="SVGID_3_" x="181.5" y="103.7" width="502.4" height="501.7"/>
					</defs>
					<clipPath id="SVGID_4_">
						<use xlink:href="#SVGID_3_"  style="overflow:visible;"/>
					</clipPath>
					<path class="st2" d="M615.9,359.8c-2.6,0-4.7-1.6-6.3-3.1c-2.6-2.6-4.2-7.3-4.2-12c0-6.8,4.7-12,8.9-15.2l0.5-0.5
						c9.9,5.2,11.5,10.5,11.5,15.2C626.4,352.5,621.7,359.8,615.9,359.8L615.9,359.8z M473.6,256.8c-1.6,3.7-5.8,6.3-9.4,6.3
						c-1.6,0-3.1-0.5-4.2-1c-16.7-7.8-35.1-12-52.3-12c-9.9,0-19.9,1.6-29.8,4.2c-5.8,1.6-11.5-1.6-13.1-7.3
						c-1.6-5.7,1.6-11.5,7.3-13.1c11.5-3.1,23.6-4.7,35.1-4.7c19.9,0,41.3,4.7,60.7,13.6C473.6,245.3,476.2,251.6,473.6,256.8
						L473.6,256.8z M654.2,297.1c-13.1-2.1-29.3,1.6-42.4,8.9c-12-2.6-30.4-2.6-47.1,3.1c-24.6-58.5-93.2-100.9-158.1-100.9
						c-22.5,0-45,5.2-65.4,14.6l-64.4-30.3c-4.2-2.1-8.9,2.1-7.3,6.3l20.9,59.1c-12.6,13.1-23,28.2-30.4,45c-1,3.1-3.7,5.2-7.3,6.3
						l-18.8,4.7c-9.4,2.1-15.7,10.5-15.7,20.4V375c0,9.4,6.3,17.8,15.7,20.4l19.4,4.7c3.1,1,5.8,3.1,7.3,6.3
						c8.9,20.4,22.5,38.7,39.3,53.8c1.6,1.6,3.1,3.7,3.7,6.3l7.9,47.6c1,5.2,5.2,8.9,10.5,8.9h34.5c5.2,0,9.4-3.7,10.5-8.9l2.6-16.7
						c12,3.1,24.6,4.7,37.7,4.7c14.1,0,28.8-2.1,42.4-5.7l3.1,17.8c1,5.2,5.2,8.9,10.5,8.9h34.5c5.2,0,9.4-3.7,10.5-8.9l7.9-47.6
						c0.5-2.6,1.6-4.7,3.7-6.3c31.9-27.7,54.4-64.3,54.4-105.6c0-8.9-1-17.2-3.1-25.6c6.3-2.1,13.1-3.7,19.4-3.7
						c-3.7,5.7-5.8,12-5.8,18.8c-0.5,10.5,3.7,20.4,10.5,27.7c5.8,5.7,13.1,9.4,20.9,9.4c17.3,0,31.4-16.2,31.4-36.6
						c0-9.9-3.7-18.8-11-25.6c5.2-1,9.9-1.6,14.7-1c5.8,1,11-3.1,12-8.9C663.6,303.4,659.9,298.1,654.2,297.1L654.2,297.1z"/>
				</g>
			</g>
			<g class="st1">
				<g>
					<defs>
						<rect id="SVGID_5_" x="-0.1" y="-0.2" width="710.5" height="711.2"/>
					</defs>
					<clipPath id="SVGID_6_">
						<use xlink:href="#SVGID_5_"  style="overflow:visible;"/>
					</clipPath>
					<g class="st3">
						<g>
							<defs>
								<rect id="SVGID_7_" x="-0.1" y="-0.2" width="710.5" height="711.2"/>
							</defs>
							<clipPath id="SVGID_8_">
								<use xlink:href="#SVGID_7_"  style="overflow:visible;"/>
							</clipPath>
							<g class="st4">
								<g>
									<defs>
										<rect id="SVGID_9_" x="29.9" y="225.1" width="255.6" height="255.3"/>
									</defs>
									<defs>
										<rect id="SVGID_10_" x="29.9" y="225.1" width="255.6" height="255.3"/>
									</defs>
									<defs>
										<rect id="SVGID_11_" x="29.9" y="225.1" width="255.6" height="255.3"/>
									</defs>
									<clipPath id="SVGID_12_">
										<use xlink:href="#SVGID_9_"  style="overflow:visible;"/>
									</clipPath>
									<clipPath id="SVGID_13_" class="st5">
										<use xlink:href="#SVGID_10_"  style="overflow:visible;"/>
									</clipPath>
									<clipPath id="SVGID_14_" class="st6">
										<use xlink:href="#SVGID_11_"  style="overflow:visible;"/>
									</clipPath>
									<path class="st7" d="M173.7,443.2V262.4h42.6v180.8H173.7L173.7,443.2L173.7,443.2z M99.1,443.2V262.4h42.6v180.8H99.1
										L99.1,443.2L99.1,443.2z M232.3,448.5V257.1c0-5.8-4.8-10.6-10.7-10.6H93.8c-5.9,0-10.7,4.8-10.7,10.6v191.5
										c0,5.8,4.8,10.6,10.7,10.6h127.8C227.5,459.1,232.3,454.4,232.3,448.5L232.3,448.5z"/>
									<path class="st7" d="M125.7,278.3v42.6h-10.6v-42.6H125.7z"/>
									<path class="st7" d="M125.7,331.5v21.3h-10.6v-21.3H125.7z"/>
								</g>
							</g>
						</g>
					</g>
				</g>
			</g>
		</g>
	</g>
</g>
</svg>
